<?xml version="1.0" standalone="no"?>
<!DOCTYPE svg PUBLIC "-//W3C//DTD SVG 20010904//EN"
 "http://www.w3.org/TR/2001/REC-SVG-20010904/DTD/svg10.dtd">
<svg version="1.0" xmlns="http://www.w3.org/2000/svg"
 width="594.000000pt" height="198.000000pt" viewBox="0 0 594.000000 198.000000"
 preserveAspectRatio="xMidYMid meet">

<g transform="translate(0.000000,198.000000) scale(0.100000,-0.100000)"
fill="#000000" stroke="none">
<path d="M1357 1966 c-104 -37 -184 -119 -322 -326 -185 -279 -290 -468 -335
-601 -29 -89 -25 -113 20 -117 l35 -2 130 245 c120 227 132 245 155 243 47 -5
61 -56 71 -266 9 -199 16 -240 52 -293 33 -49 80 -71 145 -66 48 3 95 28 81
42 -3 2 -34 10 -70 17 -62 13 -65 15 -86 58 -29 59 -51 188 -59 353 l-7 134
64 43 c97 65 228 204 263 277 16 34 36 65 45 68 9 3 43 9 76 12 93 8 91 11
104 -217 6 -107 17 -224 26 -259 8 -35 13 -72 10 -82 -8 -25 -82 -116 -167
-206 -44 -47 -65 -78 -62 -88 14 -36 64 -4 168 109 48 53 92 96 97 96 4 0 39
-30 76 -68 101 -100 217 -151 343 -152 48 0 56 3 66 24 11 23 9 23 -75 38
-114 21 -188 50 -241 95 -44 38 -79 100 -80 141 0 28 58 115 229 342 115 153
131 179 131 213 0 34 -3 38 -22 35 -16 -2 -47 -37 -101 -113 -167 -236 -210
-294 -248 -331 l-39 -38 -1 44 c0 25 -4 124 -8 220 -9 195 -18 227 -74 257
-35 18 -120 23 -177 10 l-35 -8 -1 37 c0 28 -8 44 -32 66 -37 32 -82 36 -145
14z m89 -82 c10 -40 -4 -113 -35 -179 -34 -74 -127 -176 -185 -204 -47 -23
-125 -28 -144 -9 -20 20 -13 72 18 135 90 179 322 352 346 257z"/>
<path d="M453 1875 c-119 -51 -256 -276 -387 -633 -70 -191 -74 -265 -17 -309
28 -21 60 -14 153 34 251 129 452 436 474 723 5 63 4 67 -31 113 -36 48 -99
87 -140 86 -11 0 -34 -6 -52 -14z m171 -175 c0 -60 -7 -105 -23 -153 -24 -70
-98 -192 -116 -190 -15 2 -44 120 -44 184 -1 66 21 146 51 184 29 38 78 66
108 63 25 -3 25 -4 24 -88z m-217 -15 c-32 -93 -30 -239 6 -326 15 -36 27 -73
27 -81 0 -46 -142 -189 -239 -241 -53 -29 -121 -45 -121 -28 0 52 139 412 217
563 49 95 116 188 127 177 3 -2 -5 -31 -17 -64z"/>
<path d="M3708 1845 c-49 -33 -90 -92 -198 -285 -156 -277 -235 -394 -319
-474 l-31 -30 0 43 c0 23 12 97 26 164 55 262 55 318 -1 374 -29 29 -40 33
-84 33 -38 0 -53 -4 -60 -18 -13 -24 -3 -38 42 -57 25 -10 39 -24 43 -41 10
-38 -3 -176 -31 -354 -27 -171 -31 -250 -13 -268 7 -7 26 -12 44 -12 27 0 40
10 82 57 132 154 289 381 458 663 87 145 102 165 136 178 43 17 49 37 16 46
-43 11 -73 6 -110 -19z"/>
<path d="M4400 1713 c-75 -83 -304 -540 -315 -629 -7 -61 -7 -62 -43 -68 -62
-10 -109 -7 -121 8 -30 36 -24 79 23 169 25 48 46 95 46 106 0 11 -14 31 -31
45 -69 58 -210 17 -308 -90 -61 -67 -112 -168 -119 -233 -4 -43 -1 -53 21 -75
48 -48 123 -29 211 54 l54 51 7 -29 c3 -16 19 -42 35 -57 27 -26 33 -27 92
-23 35 3 80 14 100 23 36 18 37 18 68 -8 32 -27 89 -44 115 -33 27 10 16 43
-25 71 -36 25 -40 32 -40 72 0 67 51 184 156 359 53 87 105 177 117 199 33 64
42 145 17 145 -4 0 -31 -26 -60 -57z m-533 -473 c-3 -26 -20 -60 -45 -94 -46
-60 -155 -138 -186 -134 -18 3 -21 9 -19 47 5 101 128 215 237 220 16 1 18 -4
13 -39z"/>
<path d="M4730 1708 c-37 -44 -89 -135 -176 -311 -109 -218 -126 -257 -131
-312 -8 -82 7 -120 58 -146 47 -23 97 -25 106 -3 4 10 -10 30 -41 58 -25 24
-46 49 -46 57 0 74 64 214 208 452 83 138 96 166 100 213 6 73 -12 71 -78 -8z"/>
<path d="M5823 1518 c-11 -13 -58 -82 -105 -153 -128 -195 -252 -297 -379
-312 -48 -6 -49 -5 -49 21 0 34 28 90 96 189 30 43 54 86 54 96 0 27 -26 44
-55 37 -45 -11 -142 -188 -175 -316 l-11 -46 -102 -17 c-122 -21 -187 -22
-211 -4 -27 20 -18 35 64 102 88 72 110 101 119 152 23 124 -93 133 -218 17
-77 -71 -105 -133 -99 -220 6 -100 52 -134 180 -134 68 0 221 29 256 49 10 6
23 4 36 -4 33 -21 100 -27 147 -15 69 19 153 75 239 161 43 43 81 79 83 79 3
0 1 -19 -4 -42 -26 -118 -107 -220 -299 -373 -200 -160 -242 -211 -355 -428
-131 -252 -139 -360 -25 -344 78 10 142 51 246 159 158 164 232 284 349 566
67 160 92 194 215 282 92 67 105 79 105 105 0 48 -26 41 -99 -25 -36 -33 -71
-60 -76 -60 -18 0 13 114 81 298 52 141 59 186 33 196 -21 8 -18 9 -41 -16z
m-823 -236 c0 -4 -13 -29 -29 -53 -27 -43 -84 -89 -109 -89 -15 0 0 41 30 82
31 44 108 87 108 60z m540 -491 c0 -18 -63 -187 -87 -236 -54 -105 -182 -282
-264 -363 -83 -82 -137 -113 -173 -99 -54 21 34 198 205 412 129 162 319 333
319 286z"/>
</g>
</svg>
