<?xml version="1.0" encoding="UTF-8" standalone="no"?>
<!-- Created with Inkscape (http://www.inkscape.org/) -->

<svg
   width="33.866661mm"
   height="29.363152mm"
   viewBox="0 0 33.866661 29.363152"
   version="1.1"
   id="svg1"
   xml:space="preserve"
   xmlns="http://www.w3.org/2000/svg"
   xmlns:svg="http://www.w3.org/2000/svg"><defs
     id="defs1" /><g
     id="layer1"
     transform="translate(-52.864532,67.585191)"><path
       style="fill:#ffffff"
       d="m 73.074016,-39.33894 c -0.59889,-0.617115 -1.9192,-2.32627 -2.93401,-3.798122 l -1.84511,-2.676094 -2.55581,-0.169259 c -1.40569,-0.09309 -3.56001,-0.169875 -4.78737,-0.170628 -3.62901,-0.0022 -5.35626,-1.247287 -7.236111,-5.216042 -0.804873,-1.699253 -0.851071,-1.961948 -0.851071,-4.839494 0,-3.435637 0.275215,-4.231134 2.342772,-6.771683 2.05695,-2.527506 1.21469,-2.351518 11.45434,-2.393352 l 9.03461,-0.03691 1.44047,-1.087568 c 0.79226,-0.598163 1.66778,-1.087356 1.9456,-1.087096 0.31363,2.94e-4 0.80253,0.471194 1.28962,1.242141 1.0954,1.733775 1.2307,3.946881 0.34656,5.668823 l -0.62791,1.222895 1.07614,0.680814 c 0.59187,0.374448 2.08601,1.008036 3.3203,1.407973 l 2.24416,0.72716 -1.05833,0.223523 c -0.7807,0.164886 -1.37067,0.108694 -2.24896,-0.214203 -1.5994,-0.58801 -4.49285,-2.151611 -5.21327,-2.817218 l -0.58307,-0.538702 0.84135,-0.56699 c 1.1861,-0.799308 2.04458,-2.179929 2.04458,-3.288114 0,-1.0173 -0.94024,-3.219408 -1.37459,-3.219408 -0.30221,0 -2.04762,1.295814 -3.26366,2.422981 -0.77562,0.718927 -0.85336,0.734746 -2.38125,0.484553 -0.86871,-0.14225 -4.62389,-0.259326 -8.34486,-0.260168 l -6.76539,-0.0015 -1.14122,0.976839 c -1.00883,0.863521 -2.847986,3.948653 -2.538453,4.258186 0.223387,0.223387 1.277503,-0.289375 2.125493,-1.033919 1.15135,-1.010896 1.52052,-0.500443 0.3869,0.534961 -0.46156,0.421566 -1.29176,0.97056 -1.84489,1.219988 -1.116231,0.503351 -1.30746,0.932445 -1.312804,2.945763 -0.0074,2.797457 1.539364,6.140354 3.521234,7.610058 0.69458,0.515084 1.18265,0.562986 6.98995,0.686041 4.36567,0.09251 6.27357,0.223796 6.34411,0.436562 0.0555,0.167349 -0.21258,0.408758 -0.5957,0.536465 l -0.69658,0.232194 1.1702,1.580202 c 1.36483,1.843011 3.27609,3.858687 4.95901,5.229932 l 1.19062,0.970117 -1.38936,0.005 c -1.28934,0.005 -1.46774,-0.0756 -2.47824,-1.116847 z m -1.94644,-19.502333 c -0.52441,-1.014102 -0.5099,-1.229827 0.1255,-1.865222 1.0772,-1.077205 2.64583,-0.351128 2.64583,1.224687 0,1.016963 -0.42699,1.421146 -1.50133,1.421146 -0.69174,0 -0.94768,-0.15731 -1.27,-0.780611 z m 1.17617,-1.325721 c 0.21407,-0.13538 0.3085,-0.326859 0.20985,-0.42551 -0.24212,-0.242118 -0.99594,0.06584 -0.99594,0.406871 0,0.336049 0.27392,0.342544 0.78609,0.01864 z m 5.05131,-2.151726 c -0.0151,-0.626205 0.78919,-3.321295 1.17981,-3.95332 0.0897,-0.145156 0.27972,-0.191847 0.42226,-0.103758 0.16862,0.104219 0.16735,0.270773 -0.004,0.476825 -0.14454,0.174164 -0.55959,1.205361 -0.92233,2.291549 -0.40834,1.222742 -0.66583,1.713551 -0.67608,1.288704 z"
       id="path1" /></g></svg>
