<svg xmlns="http://www.w3.org/2000/svg" xmlns:xlink="http://www.w3.org/1999/xlink" width="808.175" height="555.881" viewBox="0 0 808.175 555.881">
  <defs>
    <linearGradient id="linear-gradient" x1="0.5" x2="0.5" y2="1" gradientUnits="objectBoundingBox">
      <stop offset="0" stop-color="#179ac4"/>
      <stop offset="1" stop-color="#5f5cdc"/>
    </linearGradient>
    <clipPath id="clip-path">
      <rect id="Retângulo_3" data-name="Retângulo 3" width="808.175" height="555.881" fill="url(#linear-gradient)"/>
    </clipPath>
  </defs>
  <g id="orxvalley.colored" transform="translate(-742 -395)">
    <g id="Grupo_2" data-name="Grupo 2" transform="translate(742 395)">
      <g id="Grupo_1" data-name="Grupo 1" clip-path="url(#clip-path)">
        <path id="Caminho_1" data-name="Caminho 1" d="M207.45,223.964c-43.553,33.307-102.48,31.313-141.763-7.971-41.276-41.276-41.276-109.025,0-150.3s109.027-41.278,150.3,0c39,39,41.276,97.642,8.255,140.909l24.767,24.767c45.83-57.786,44.124-137.493-8.54-190.157-54.941-54.941-144.325-54.941-199.266,0s-54.941,144.325,0,199.268c52.947,52.947,132.938,54.37,190.726,7.97Z" transform="translate(0 0.002)" fill="url(#linear-gradient)"/>
        <path id="Caminho_2" data-name="Caminho 2" d="M241.427,150.163l13.285-20.532c25.363-5.233,49.518-22.543,49.518-50.724,0-24.155-19.726-44.285-43.881-44.285-19.324,0-43.479,9.259-43.479,38.246V270.131H182.65V7.649h34.22v5.637A80.014,80.014,0,0,1,260.349,0c43.477,0,78.1,35.83,78.1,78.907,0,31-18.52,60.789-47.506,72.866L394,256.041,369.85,280.6Z" transform="translate(155.715 0)" fill="url(#linear-gradient)"/>
        <path id="Caminho_3" data-name="Caminho 3" d="M411.439,112.722,475.449,0l29.791,17.31L436.4,138.085,546.3,248.794l-24.155,24.557L418.686,169.083l-77.7,136.474-30.193-17.312,82.931-144.927L307.171,56.362,331.326,31.8Z" transform="translate(261.874 0)" fill="url(#linear-gradient)"/>
        <path id="Caminho_4" data-name="Caminho 4" d="M112.257,323.244H104.5L29.334,155.215H47.518l60.86,138.691,60.86-138.691h18.184Z" transform="translate(60.051 144.979)" fill="url(#linear-gradient)"/>
        <path id="Caminho_5" data-name="Caminho 5" d="M230.855,302.555h-16.73V281.946c-7.033,14.3-24.248,23.033-41.948,23.033-31.036,0-56.01-26.428-56.01-59.888,0-33.22,24.974-59.163,56.252-59.163,17.943,0,35.158,8.485,41.705,22.793V189.807h16.73Zm-98.441-56.98c0,23.277,16.972,43.158,40.977,43.158,23.762,0,40.735-19.4,40.735-43.158s-16.972-43.4-40.735-43.4c-24,0-40.977,20.127-40.977,43.4" transform="translate(118.546 165.668)" fill="url(#linear-gradient)"/>
        <rect id="Retângulo_1" data-name="Retângulo 1" width="16.246" height="186.423" transform="translate(395.228 281.801)" fill="url(#linear-gradient)"/>
        <rect id="Retângulo_2" data-name="Retângulo 2" width="16.244" height="144.383" transform="translate(432.194 283.674)" fill="url(#linear-gradient)"/>
        <path id="Caminho_6" data-name="Caminho 6" d="M280.612,244.848v.728a42.94,42.94,0,0,0,43.16,43.156c13.336,0,27.4-6.059,35.643-16.243l11.153,13.093c-12.365,12.852-30.067,19.4-46.8,19.4-33.461,0-59.406-26.428-59.406-59.889,0-33.218,25.945-59.161,59.647-59.161,13.821,0,27.643,4.363,38.795,14.79,11.883,11.153,19.4,27.156,19.4,35.158,0,6.79-5.332,8.971-9.213,8.971Zm83.168-14.79c-4.852-15.761-22.067-27.884-40.008-27.884s-35.643,12.124-40.251,27.884Z" transform="translate(218.377 165.669)" fill="url(#linear-gradient)"/>
        <path id="Caminho_7" data-name="Caminho 7" d="M666.377,188.246H648.919L609.2,270.062l-41.3-81.816L543.67,186.48,596.2,285.628s14.5,45.931-128.034,57.378c-69.555,5.586-166.523-37.412-273.206-27.512S33.033,366.239,29.247,367.32c19.238-3.544,59.032-32.009,165.715-35.83s188.521,36.688,273.206,35.83,141.028-35.9,141.028-35.9" transform="translate(57.859 167.23)" fill="url(#linear-gradient)"/>
      </g>
    </g>
    <path id="Subtração_2" data-name="Subtração 2" d="M-3194.412,658.94a142.542,142.542,0,0,1-28.517-2.875,140.789,140.789,0,0,1-26.561-8.245,141.505,141.505,0,0,1-24.036-13.046,142.516,142.516,0,0,1-20.942-17.278,142.52,142.52,0,0,1-17.278-20.942,141.523,141.523,0,0,1-13.046-24.036,140.788,140.788,0,0,1-8.245-26.561,142.559,142.559,0,0,1-2.875-28.517,142.557,142.557,0,0,1,2.875-28.517,140.787,140.787,0,0,1,8.245-26.561,141.526,141.526,0,0,1,13.046-24.036,142.532,142.532,0,0,1,17.278-20.942,142.526,142.526,0,0,1,20.942-17.278,141.513,141.513,0,0,1,24.036-13.046,140.79,140.79,0,0,1,26.561-8.245,142.548,142.548,0,0,1,28.517-2.875,142.549,142.549,0,0,1,28.517,2.875,140.795,140.795,0,0,1,26.561,8.245,141.518,141.518,0,0,1,24.036,13.046,142.507,142.507,0,0,1,20.942,17.278,142.514,142.514,0,0,1,17.278,20.942,141.491,141.491,0,0,1,13.046,24.036,140.771,140.771,0,0,1,8.245,26.561,142.556,142.556,0,0,1,2.875,28.517,142.558,142.558,0,0,1-2.875,28.517,140.772,140.772,0,0,1-8.245,26.561,141.488,141.488,0,0,1-13.046,24.036,142.5,142.5,0,0,1-17.278,20.942,142.508,142.508,0,0,1-20.942,17.278,141.515,141.515,0,0,1-24.036,13.046,140.792,140.792,0,0,1-26.561,8.245A142.548,142.548,0,0,1-3194.412,658.94Zm1.5-231a84.774,84.774,0,0,0-33.864,6.994,86.632,86.632,0,0,0-27.654,19.073,88.875,88.875,0,0,0-18.645,28.29,90.212,90.212,0,0,0-6.837,34.644h174a90.21,90.21,0,0,0-6.836-34.644,88.864,88.864,0,0,0-18.645-28.29,86.633,86.633,0,0,0-27.654-19.073A84.769,84.769,0,0,0-3192.912,427.941Z" transform="translate(4077.912 19.059)" fill="url(#linear-gradient)"/>
    <line id="Linha_1" data-name="Linha 1" x2="61.588" transform="translate(798 554.359)" fill="none" stroke="#fff" stroke-width="12"/>
    <path id="Caminho_8" data-name="Caminho 8" d="M-19.829,5.26h40" transform="translate(851.794 570.719)" fill="#179ac4" stroke="#fff" stroke-width="8"/>
    <line id="Linha_3" data-name="Linha 3" x2="11.87" y2="13.894" transform="translate(898.539 501.521)" fill="none" stroke="#3e78d0" stroke-linecap="square" stroke-width="9"/>
    <line id="Linha_4" data-name="Linha 4" x1="26.989" y2="24.083" transform="translate(910.409 491.332)" fill="none" stroke="#3e78d0" stroke-linecap="square" stroke-width="9"/>
  </g>
</svg>
