<svg xmlns="http://www.w3.org/2000/svg" xmlns:xlink="http://www.w3.org/1999/xlink" width="808.175" height="555.881" viewBox="0 0 808.175 555.881">
  <defs>
    <clipPath id="clip-path">
      <rect id="Retângulo_3" data-name="Retângulo 3" width="808.175" height="555.881" fill="#fff"/>
    </clipPath>
  </defs>
  <g id="orxvalley.white" transform="translate(-742 -395)">
    <g id="Grupo_2" data-name="Grupo 2" transform="translate(742 395)">
      <g id="Grupo_1" data-name="Grupo 1" clip-path="url(#clip-path)">
        <path id="Caminho_1" data-name="Caminho 1" d="M207.45,223.964c-43.553,33.307-102.48,31.313-141.763-7.971-41.276-41.276-41.276-109.025,0-150.3s109.027-41.278,150.3,0c39,39,41.276,97.642,8.255,140.909l24.767,24.767c45.83-57.786,44.124-137.493-8.54-190.157-54.941-54.941-144.325-54.941-199.266,0s-54.941,144.325,0,199.268c52.947,52.947,132.938,54.37,190.726,7.97Z" transform="translate(0 0.002)" fill="#fff"/>
        <path id="Caminho_2" data-name="Caminho 2" d="M241.427,150.163l13.285-20.532c25.363-5.233,49.518-22.543,49.518-50.724,0-24.155-19.726-44.285-43.881-44.285-19.324,0-43.479,9.259-43.479,38.246V270.131H182.65V7.649h34.22v5.637A80.014,80.014,0,0,1,260.349,0c43.477,0,78.1,35.83,78.1,78.907,0,31-18.52,60.789-47.506,72.866L394,256.041,369.85,280.6Z" transform="translate(155.715 0)" fill="#fff"/>
        <path id="Caminho_3" data-name="Caminho 3" d="M411.439,112.722,475.449,0l29.791,17.31L436.4,138.085,546.3,248.794l-24.155,24.557L418.686,169.083l-77.7,136.474-30.193-17.312,82.931-144.927L307.171,56.362,331.326,31.8Z" transform="translate(261.874 0)" fill="#fff"/>
        <path id="Caminho_4" data-name="Caminho 4" d="M112.257,323.244H104.5L29.334,155.215H47.518l60.86,138.691,60.86-138.691h18.184Z" transform="translate(60.051 144.979)" fill="#fff"/>
        <path id="Caminho_5" data-name="Caminho 5" d="M230.855,302.555h-16.73V281.946c-7.033,14.3-24.248,23.033-41.948,23.033-31.036,0-56.01-26.428-56.01-59.888,0-33.22,24.974-59.163,56.252-59.163,17.943,0,35.158,8.485,41.705,22.793V189.807h16.73Zm-98.441-56.98c0,23.277,16.972,43.158,40.977,43.158,23.762,0,40.735-19.4,40.735-43.158s-16.972-43.4-40.735-43.4c-24,0-40.977,20.127-40.977,43.4" transform="translate(118.546 165.668)" fill="#fff"/>
        <rect id="Retângulo_1" data-name="Retângulo 1" width="16.246" height="186.423" transform="translate(395.228 281.801)" fill="#fff"/>
        <rect id="Retângulo_2" data-name="Retângulo 2" width="16.244" height="144.383" transform="translate(432.194 283.674)" fill="#fff"/>
        <path id="Caminho_6" data-name="Caminho 6" d="M280.612,244.848v.728a42.94,42.94,0,0,0,43.16,43.156c13.336,0,27.4-6.059,35.643-16.243l11.153,13.093c-12.365,12.852-30.067,19.4-46.8,19.4-33.461,0-59.406-26.428-59.406-59.889,0-33.218,25.945-59.161,59.647-59.161,13.821,0,27.643,4.363,38.795,14.79,11.883,11.153,19.4,27.156,19.4,35.158,0,6.79-5.332,8.971-9.213,8.971Zm83.168-14.79c-4.852-15.761-22.067-27.884-40.008-27.884s-35.643,12.124-40.251,27.884Z" transform="translate(218.377 165.669)" fill="#fff"/>
        <path id="Caminho_7" data-name="Caminho 7" d="M666.377,188.246H648.919L609.2,270.062l-41.3-81.816L543.67,186.48,596.2,285.628s14.5,45.931-128.034,57.378c-69.555,5.586-166.523-37.412-273.206-27.512S33.033,366.239,29.247,367.32c19.238-3.544,59.032-32.009,165.715-35.83s188.521,36.688,273.206,35.83,141.028-35.9,141.028-35.9" transform="translate(57.859 167.23)" fill="#fff"/>
      </g>
    </g>
    <g id="Subtração_2" data-name="Subtração 2" transform="translate(4077.912 19.059)" fill="#fff">
      <path d="M -3194.412353515625 658.4404907226562 C -3203.9794921875 658.4404907226562 -3213.540283203125 657.4766845703125 -3222.8291015625 655.5758056640625 C -3231.88232421875 653.7232666015625 -3240.787109375 650.9591064453125 -3249.295654296875 647.3602294921875 C -3257.651123046875 643.826171875 -3265.709228515625 639.4523315429688 -3273.246337890625 634.3602905273438 C -3280.713134765625 629.3156127929688 -3287.734130859375 623.5228271484375 -3294.1142578125 617.142822265625 C -3300.495361328125 610.7616577148438 -3306.2880859375 603.7406616210938 -3311.331787109375 596.27490234375 C -3316.42431640625 588.737060546875 -3320.798095703125 580.6788940429688 -3324.33203125 572.32421875 C -3327.930908203125 563.8155517578125 -3330.69482421875 554.910888671875 -3332.547607421875 545.8577270507812 C -3334.4482421875 536.5678100585938 -3335.412109375 527.0068969726562 -3335.412109375 517.4406127929688 C -3335.412109375 507.8744506835938 -3334.4482421875 498.3136596679688 -3332.547607421875 489.0237731933594 C -3330.695068359375 479.9706420898438 -3327.930908203125 471.0660705566406 -3324.33203125 462.557373046875 C -3320.798095703125 454.20263671875 -3316.424072265625 446.1444702148438 -3311.331787109375 438.6067199707031 C -3306.2880859375 431.1409912109375 -3300.4951171875 424.1199951171875 -3294.1142578125 417.73876953125 C -3287.733642578125 411.3582763671875 -3280.712646484375 405.5654296875 -3273.246337890625 400.5211791992188 C -3265.708740234375 395.4288940429688 -3257.650634765625 391.0549926757812 -3249.295654296875 387.5210571289062 C -3240.78662109375 383.9220275878906 -3231.8818359375 381.1578979492188 -3222.8291015625 379.3054504394531 C -3213.539794921875 377.4046020507812 -3203.97900390625 376.4408264160156 -3194.412353515625 376.4408264160156 C -3184.845458984375 376.4408264160156 -3175.28466796875 377.4046020507812 -3165.995361328125 379.3054504394531 C -3156.942626953125 381.1578979492188 -3148.037841796875 383.9219970703125 -3139.528564453125 387.5210571289062 C -3131.173095703125 391.0552673339844 -3123.114990234375 395.4291687011719 -3115.577880859375 400.5211791992188 C -3108.111328125 405.5653991699219 -3101.09033203125 411.3582458496094 -3094.709716796875 417.73876953125 C -3088.328369140625 424.1202087402344 -3082.53564453125 431.1411743164062 -3077.4921875 438.6067199707031 C -3072.3994140625 446.1445922851562 -3068.025634765625 454.2027893066406 -3064.491943359375 462.557373046875 C -3060.892822265625 471.0665283203125 -3058.128662109375 479.9710998535156 -3056.276123046875 489.0238037109375 C -3054.37548828125 498.3136291503906 -3053.41162109375 507.8744201660156 -3053.41162109375 517.4406127929688 C -3053.41162109375 527.0069580078125 -3054.37548828125 536.56787109375 -3056.276123046875 545.8577270507812 C -3058.128662109375 554.910400390625 -3060.892822265625 563.8150634765625 -3064.491943359375 572.32421875 C -3068.025390625 580.6787719726562 -3072.3994140625 588.7369384765625 -3077.4921875 596.27490234375 C -3082.53564453125 603.7406616210938 -3088.32861328125 610.7615966796875 -3094.709716796875 617.142822265625 C -3101.090087890625 623.523193359375 -3108.111328125 629.3159790039062 -3115.577880859375 634.3602905273438 C -3123.115478515625 639.4525756835938 -3131.173583984375 643.826416015625 -3139.528564453125 647.3602294921875 C -3148.037841796875 650.9592895507812 -3156.942626953125 653.7234497070312 -3165.995361328125 655.5758056640625 C -3175.284423828125 657.4766845703125 -3184.845458984375 658.4404907226562 -3194.412353515625 658.4404907226562 Z M -3192.912109375 427.4410400390625 C -3204.726806640625 427.4410400390625 -3216.187255859375 429.8079528808594 -3226.974853515625 434.4760437011719 C -3237.392822265625 438.9830932617188 -3246.75048828125 445.4369201660156 -3254.7880859375 453.6581726074219 C -3262.82177734375 461.8775024414062 -3269.1298828125 471.4488525390625 -3273.537109375 482.1063537597656 C -3278.099365234375 493.14111328125 -3280.412353515625 504.8612060546875 -3280.412353515625 516.9411010742188 L -3280.412353515625 517.4411010742188 L -3279.912353515625 517.4411010742188 L -3105.911865234375 517.441162109375 L -3105.411865234375 517.441162109375 L -3105.411865234375 516.941162109375 C -3105.411865234375 504.8595581054688 -3107.724609375 493.1394653320312 -3112.2861328125 482.1063842773438 C -3116.692626953125 471.4501953125 -3123.0009765625 461.8788757324219 -3131.035888671875 453.658203125 C -3139.070068359375 445.439453125 -3148.427734375 438.9856262207031 -3158.849365234375 434.4760437011719 C -3169.63623046875 429.8079528808594 -3181.0966796875 427.4410400390625 -3192.912109375 427.4410400390625 Z" stroke="none"/>
      <path d="M -3194.412353515625 657.9404907226562 C -3184.879150390625 657.9404907226562 -3175.351806640625 656.9801025390625 -3166.095458984375 655.0859375 C -3157.0751953125 653.240234375 -3148.202392578125 650.4859619140625 -3139.723388671875 646.8997192382812 C -3131.398193359375 643.3784790039062 -3123.36865234375 639.0202026367188 -3115.85791015625 633.9459838867188 C -3108.41748046875 628.9194946289062 -3101.421142578125 623.1471557617188 -3095.063232421875 616.7892456054688 C -3088.70458984375 610.4305419921875 -3082.932373046875 603.4343872070312 -3077.906494140625 595.9949951171875 C -3072.831787109375 588.4837646484375 -3068.473388671875 580.4542236328125 -3064.952392578125 572.12939453125 C -3061.3662109375 563.6506958007812 -3058.61181640625 554.77783203125 -3056.76611328125 545.7575073242188 C -3054.8720703125 536.5005493164062 -3053.91162109375 526.9733276367188 -3053.91162109375 517.4406127929688 C -3053.91162109375 507.9080200195312 -3054.8720703125 498.3809509277344 -3056.76611328125 489.1240234375 C -3058.61181640625 480.1036682128906 -3061.3662109375 471.2308959960938 -3064.952392578125 462.7521362304688 C -3068.473388671875 454.4272766113281 -3072.831787109375 446.3977661132812 -3077.906494140625 438.8865966796875 C -3082.93212890625 431.4474487304688 -3088.70458984375 424.4512329101562 -3095.063232421875 418.0923461914062 C -3101.42138671875 411.7343139648438 -3108.417724609375 405.9618835449219 -3115.85791015625 400.9354553222656 C -3123.3681640625 395.8615417480469 -3131.397705078125 391.5032043457031 -3139.72314453125 387.9815673828125 C -3148.2021484375 384.3953552246094 -3157.0751953125 381.64111328125 -3166.095458984375 379.7953186035156 C -3175.35205078125 377.9012145996094 -3184.879150390625 376.9408264160156 -3194.412353515625 376.9408264160156 C -3203.945556640625 376.9408264160156 -3213.47265625 377.9012145996094 -3222.72900390625 379.7953186035156 C -3231.749267578125 381.6411437988281 -3240.6220703125 384.3953857421875 -3249.100830078125 387.9815673828125 C -3257.426025390625 391.5029296875 -3265.45556640625 395.8612365722656 -3272.96630859375 400.9354553222656 C -3280.40625 405.9619140625 -3287.402587890625 411.7343139648438 -3293.7607421875 418.0923461914062 C -3300.119140625 424.4510192871094 -3305.8916015625 431.4472351074219 -3310.91748046875 438.8866271972656 C -3315.99169921875 446.3976440429688 -3320.35009765625 454.4271240234375 -3323.87158203125 462.7521362304688 C -3327.45751953125 471.2304382324219 -3330.211669921875 480.1032104492188 -3332.0576171875 489.1240234375 C -3333.95166015625 498.3809814453125 -3334.912109375 507.9080810546875 -3334.912109375 517.4406127929688 C -3334.912109375 526.9732666015625 -3333.95166015625 536.50048828125 -3332.0576171875 545.7575073242188 C -3330.211669921875 554.7783203125 -3327.45751953125 563.651123046875 -3323.87158203125 572.12939453125 C -3320.35009765625 580.4544067382812 -3315.991943359375 588.4839477539062 -3310.91748046875 595.9950561523438 C -3305.8916015625 603.4344482421875 -3300.119140625 610.4306030273438 -3293.7607421875 616.7892456054688 C -3287.403076171875 623.1467895507812 -3280.406982421875 628.919189453125 -3272.96630859375 633.9459838867188 C -3265.4560546875 639.0199584960938 -3257.426513671875 643.3782348632812 -3249.100830078125 646.8997192382812 C -3240.622802734375 650.4857177734375 -3231.749755859375 653.239990234375 -3222.72900390625 655.0859375 C -3213.472900390625 656.9801025390625 -3203.94580078125 657.9404907226562 -3194.412353515625 657.9404907226562 M -3192.912109375 426.9410400390625 C -3181.028076171875 426.9410400390625 -3169.500732421875 429.32177734375 -3158.650634765625 434.0171813964844 C -3148.169189453125 438.5526733398438 -3138.758056640625 445.0432739257812 -3130.678466796875 453.3087158203125 C -3122.598388671875 461.5752563476562 -3116.2548828125 471.1998901367188 -3111.82421875 481.9153442382812 C -3107.237548828125 493.0093078613281 -3104.911865234375 504.793701171875 -3104.911865234375 516.941162109375 L -3104.911865234375 517.941162109375 L -3280.912353515625 517.9411010742188 L -3280.912353515625 516.9411010742188 C -3280.912353515625 504.7953186035156 -3278.58642578125 493.0109558105469 -3273.999267578125 481.915283203125 C -3269.5673828125 471.198486328125 -3263.22412109375 461.5738830566406 -3255.145751953125 453.3086242675781 C -3247.0625 445.0407104492188 -3237.6513671875 438.5501403808594 -3227.173583984375 434.0171813964844 C -3216.32275390625 429.32177734375 -3204.79541015625 426.9410400390625 -3192.912109375 426.9410400390625 M -3194.412353515625 658.9404907226562 C -3204.012939453125 658.9404907226562 -3213.607421875 657.9732666015625 -3222.929443359375 656.065673828125 C -3232.014892578125 654.2064819335938 -3240.951416015625 651.4324951171875 -3249.490478515625 647.8207397460938 C -3257.875244140625 644.2742309570312 -3265.962158203125 639.8848876953125 -3273.526123046875 634.7745971679688 C -3281.019287109375 629.7122802734375 -3288.065185546875 623.8989868164062 -3294.4677734375 617.496337890625 C -3300.87060546875 611.0933837890625 -3306.68408203125 604.0476684570312 -3311.74609375 596.5548095703125 C -3316.856689453125 588.9901123046875 -3321.24609375 580.9033203125 -3324.79248046875 572.5189819335938 C -3328.404296875 563.9796752929688 -3331.17822265625 555.0432739257812 -3333.037353515625 545.9579467773438 C -3334.94482421875 536.635498046875 -3335.912109375 527.0408325195312 -3335.912109375 517.4406127929688 C -3335.912109375 507.8404846191406 -3334.94482421875 498.2459716796875 -3333.037353515625 488.9235534667969 C -3331.17822265625 479.8382568359375 -3328.404296875 470.9018859863281 -3324.79248046875 462.3626098632812 C -3321.24609375 453.9783630371094 -3316.856689453125 445.8915405273438 -3311.74609375 438.3268127441406 C -3306.68408203125 430.8340759277344 -3300.87060546875 423.788330078125 -3294.4677734375 417.38525390625 C -3288.06494140625 410.9824829101562 -3281.019287109375 405.1692199707031 -3273.526123046875 400.1068420410156 C -3265.9619140625 394.9964904785156 -3257.875244140625 390.6071472167969 -3249.490478515625 387.0605773925781 C -3240.951171875 383.4487915039062 -3232.014892578125 380.6747436523438 -3222.929443359375 378.8156127929688 C -3213.607177734375 376.9080200195312 -3204.0126953125 375.9408264160156 -3194.412353515625 375.9408264160156 C -3184.811767578125 375.9408264160156 -3175.21728515625 376.9080200195312 -3165.89501953125 378.8156127929688 C -3156.81005859375 380.6746520996094 -3147.87353515625 383.4486389160156 -3139.333740234375 387.0605773925781 C -3130.94921875 390.6071166992188 -3122.8623046875 394.9964599609375 -3115.298095703125 400.1068420410156 C -3107.804931640625 405.1690063476562 -3100.759033203125 410.9823608398438 -3094.356201171875 417.38525390625 C -3087.952392578125 423.7891845703125 -3082.13916015625 430.8349304199219 -3077.077880859375 438.3268127441406 C -3071.967041015625 445.8915405273438 -3067.57763671875 453.9783630371094 -3064.031494140625 462.3626098632812 C -3060.419677734375 470.9015197753906 -3057.6455078125 479.837890625 -3055.786376953125 488.9235534667969 C -3053.87890625 498.2459106445312 -3052.91162109375 507.8403930664062 -3052.91162109375 517.4406127929688 C -3052.91162109375 527.0409545898438 -3053.87890625 536.6355590820312 -3055.786376953125 545.9579467773438 C -3057.6455078125 555.0436401367188 -3060.419677734375 563.9800415039062 -3064.031494140625 572.5189819335938 C -3067.57763671875 580.9033203125 -3071.967041015625 588.9901123046875 -3077.077880859375 596.5548095703125 C -3082.13916015625 604.0467529296875 -3087.952392578125 611.092529296875 -3094.356201171875 617.496337890625 C -3100.759033203125 623.899169921875 -3107.804931640625 629.7124633789062 -3115.298095703125 634.7745971679688 C -3122.8623046875 639.8848876953125 -3130.948974609375 644.2742309570312 -3139.333740234375 647.8207397460938 C -3147.87353515625 651.4326782226562 -3156.81005859375 654.2066650390625 -3165.89501953125 656.065673828125 C -3175.21728515625 657.9732666015625 -3184.81201171875 658.9404907226562 -3194.412353515625 658.9404907226562 Z M -3192.912109375 427.9410400390625 C -3204.657958984375 427.9410400390625 -3216.051513671875 430.2940673828125 -3226.7763671875 434.9349365234375 C -3237.134521484375 439.4161376953125 -3246.438720703125 445.8331604003906 -3254.4306640625 454.0077209472656 C -3262.41943359375 462.18115234375 -3268.6923828125 471.6991882324219 -3273.0751953125 482.2974243164062 C -3277.612060546875 493.2713623046875 -3279.912353515625 504.9271850585938 -3279.912353515625 516.9411010742188 L -3105.911865234375 516.941162109375 C -3105.911865234375 504.9265747070312 -3108.211669921875 493.2703857421875 -3112.748291015625 482.2974243164062 C -3117.130126953125 471.7004699707031 -3123.4033203125 462.1824340820312 -3131.3935546875 454.0077209472656 C -3139.3818359375 445.8357238769531 -3148.68603515625 439.4186706542969 -3159.0478515625 434.9349365234375 C -3169.77197265625 430.2940673828125 -3181.16552734375 427.9410400390625 -3192.912109375 427.9410400390625 Z" stroke="none" fill="#707070"/>
    </g>
    <line id="Linha_1" data-name="Linha 1" x2="61.588" transform="translate(798 554.359)" fill="none" stroke="#5564d9" stroke-width="12"/>
    <path id="Caminho_8" data-name="Caminho 8" d="M-19.829,5.26h40" transform="translate(851.794 570.719)" fill="none" stroke="#5564d9" stroke-width="8"/>
    <line id="Linha_3" data-name="Linha 3" x2="11.87" y2="13.894" transform="translate(898.539 501.521)" fill="none" stroke="#fff" stroke-linecap="square" stroke-width="9"/>
    <line id="Linha_4" data-name="Linha 4" x1="26.989" y2="24.083" transform="translate(910.409 491.332)" fill="none" stroke="#fff" stroke-linecap="square" stroke-width="9"/>
  </g>
</svg>
